<?xml version="1.0" encoding="utf-8"?>
<!-- Generator: Adobe Illustrator 23.0.4, SVG Export Plug-In . SVG Version: 6.00 Build 0)  -->
<svg version="1.1" id="Layer_1" xmlns="http://www.w3.org/2000/svg" xmlns:xlink="http://www.w3.org/1999/xlink" x="0px" y="0px"
	 viewBox="0 0 494.7 265.7" style="enable-background:new 0 0 494.7 265.7;" xml:space="preserve">
<style type="text/css">
	.st0{fill:#BCBEC0;stroke:#000000;stroke-width:1.5;stroke-linejoin:bevel;}
	.st1{fill:#BCBEC0;stroke:#000000;stroke-width:0.25;stroke-linejoin:bevel;}
</style>
<g>
	<g>
		<g id="a">
			<path class="st0" d="M265.9,201.8l-1.4,1.5h-2.4v-2.1l1.8-1.2h1.9V201.8L265.9,201.8z M269.9,195.5v2.1l-1.8-1.1v-1.6h1.8v-6
				h-4.6l-10.9,7.3l-2.7-3.1v6.1h-6.6l3.9,10.6h12.7l9.8-11.3l0.4-3.1L269.9,195.5L269.9,195.5z M98.3,76.1l2.5-1.7h3l-2.5,1.7
				C101.4,76.1,98.3,76.1,98.3,76.1z M121.3,67l-3.2,2.8h-7.5l-2.3,1.6h1.8l-2.5,1.7h-1.8l2.5-1.7h-4.9l-2.1,1.6l-2.2,0.2l0.4-3.7
				H98L96,70.8l-3.6,5.3h-2.1l4.1-6.6l4.8-1l-0.3-0.9l-3.2-0.1l-1.5-0.9l-1.9,0.9h-2.2l0.9-1.9l-4.6-2.1H47.7L34.9,76.9v10.4
				l4.7,4.7L55.9,94l2.2,3.3l4.6-0.2l3.8,7.4l7.1-8.9l16.8,0.1l1.1,8.4l2.7,0.1l0.1-10.4l27.2-23.2l1.9-0.3l1.1-3.3L121.3,67
				L121.3,67z M137.4,65.5h9.5l-2-3.1l-1.8-0.4v-2.3L137.4,65.5z M67.1,116.3l-3.7-7.9l3-3.8l-3.8-7.4l-4.6,0.2L55.9,94l-16.3-2.1
				l0,0l0.7,7.3l5,9.5l2.1-1.6l-4-8.4V94h2.3l0.1,4.4l7.5,17.6l12.2,5.1l3.1-0.8l2.7,2.7l1.3-2.4h2.8l-0.4-3.1h2.4l3.1-2.3l0.1-3.4
				l-3.4-0.1l-2.7,4.5L67.1,116.3z M202.5,39.9l4.5-2.2v-0.6l-2.2-2.3l-3.1,1l-3.8-0.1l-0.8,1.1l-2.1,0v2L202.5,39.9z M242.9,87.9
				l0-2.1l-2.4-0.1l0,1.6L242.9,87.9z M150.8,19.3v2.3l11.3,0.2l2.9,5v4.5l-5.4,3.1l0.2,6.1l3.4,3.4h4l6.1-6.5l8.7-2.6l3.2-2.5
				l6.6-0.4l4.6-1.4l8.6-13.8l5.3-1.1l1.9-1.9l-15.4-1.5l-13.3,1.5h-16.1l-9.3,3.2L150.8,19.3z M412.4,106.3l-1.3-1.4L409,108l2.1,2
				L412.4,106.3z M391.8,68.4l0.4-2.4l-4.5-0.7l-1.7-2.8h-8.6l-17.6-4.3l-1.9,4.3l-7.1-2.2l-5.3,4.1l17.4,10.1l20.1,0.2l2.4-4.9
				L391.8,68.4z M395.6,114.4L393,115v1.5l1,1.3l1.5-1.9V114.4z M386,62.5l1.7,2.8l4.5,0.7l-0.4,2.4l-6.5,1.4l-2.4,4.9l-20.1-0.2
				l-17.4-10.1l-7.5,5.7l1.2,5.8l-7.5,2.8l2.1,5.3l8,3.7l0.3,6.4l20.9,7.2l3.9-3.5l8.2,3.5l-1.1,3.1l4.4,7.2l7.6-3.9l5,4.3l2.1-1.2
				l0.1,2.1l12.5-4.5l4.1-9.1l-7.3-12l3.7-4.1h-4.3l-1.4,0.9l-2.7-4.4l3.4-3l2.4,4.5l3.3-2.3l6.4-4.4V66l-10.5-2.7l-7.7-7.6h-7.5
				l1.7,6.1L386,62.5z M429.4,75.2l2.9,0l1.2-2.1l-6.5-2.7l0.1,5.4l1.3,0.8L429.4,75.2z M421.3,87.7l-0.5,1.7l6.5-1l0.5,2.5l1.5-0.6
				l0.2-2l4.3-1.1l-0.2-5.7l-2-3.4l-2-0.6l1.1,5.2l-4,3.6L421.3,87.7z M420.1,90.9l2.3-0.3l0.8,1.1l-0.8,2.7L420.1,90.9z
				 M426.4,89.8l-1.1,2.1l-1.5-1.7L426.4,89.8z M419.3,124.8l-3.5-0.4l-1.3-1.6l1.3-3l-1.3-2.8l-2.3-0.1l-0.6,5l3.3,4l3.9,0.5
				L419.3,124.8z M408.1,133.7l1.6,0.3l2.8-2.3l-0.1-1.9L408.1,133.7z M420.4,137.3v2.2l2.3-0.7l-0.8-1.4l1.9-0.5l-1.6-5L421,135
				h-3.9L420.4,137.3z M413.5,126.2l1.7,1.6l-0.5,1l-1.3-1.3L413.5,126.2z M415.1,130.2l1.2,0.8l1.3-1.9l-1.7-0.2L415.1,130.2z
				 M419.5,128.1l1.6,2.1h1.8l-1.7-2.7L419.5,128.1z M419.5,129.9l0.9,1.6l-0.7,1l-1.3-1.9L419.5,129.9z M417.6,131.5l0.8,1.2
				l-0.8,1l-1-1.2L417.6,131.5z M420.8,164.2l1.1,1.5l3.1-0.4v-1.1H420.8z M396.2,146.6l0.1,4.3l2.5,4.3h7.8l3.9-4.9v-9l-2.8,0.3
				l-2.3,4.3l-7.6,1.7L396.2,146.6L396.2,146.6z M390.6,157.9v-3.3l-12.9-13.4l-4.4-1.7l14.9,20.3L390.6,157.9z M405.7,163.8
				l0.2,1.1l-16.1-2.7l2.4-1.9l4,1.5l3.6-0.8L405.7,163.8z M416,163.8h-2.5l0.5,1.6h2.4l1-0.8L416,163.8z M411.6,166.4l0.7,0.9h1.7
				l-0.6-1.3L411.6,166.4z M420.8,164.2l-2.5,2.8l1.9,0.2l1.7-1.5L420.8,164.2z M412.5,159.3l1.9-0.6l-0.6-3.3l1.1-1.2l0.9,2.4
				l2.2,0.8v-1.7l-1.2-2.8l2.4-2l-3.8,0.2l-0.8-1.1l1.5-1.6l2.8,1l1.4-0.1l2-2.4l-1.8,0l-1.2,0.8l-3.9-0.9l-2.6,2.3l0.2,3.7l-1.5,2
				L412.5,159.3z M426.4,154.1l-0.4,1.5l4.2-0.4v-1.1H426.4z M427.3,144.4l-1.4,1.4l-0.5,3.4l1.9,0.5l-0.4-3.1l1.1-1.4L427.3,144.4z
				 M436.8,153.5l-0.6-3l-4.6,0.6L436.8,153.5z M436.5,156l6.4,2.7l1.1,3.3l-2.1,1.3l5.5,1.9v-10.8L443,152l-4.1,3.4l-4.4-1.7
				l-0.5,2.4L436.5,156z M417.5,84.8l-4.3-3.5l-1.9,1.8l2.6,5.6l3.1-0.2L417.5,84.8z M413.1,81.3l-1.9-1.6l2.5-0.3l-0.4-4.9
				l-6.4,4.4l1.9,3.5l2.5,0.7L413.1,81.3z M407.6,138.3l-3.4,4.6l-7.9,3.7l1.6,1l7.6-1.7l2.3-4.3l2.8-0.3V138L407.6,138.3z
				 M381.3,138.3l1.4,4.5l5.7,4.8l0.4-1.7l-5.4-7.9L381.3,138.3z M449.4,165.9l3.8-3.5l4.9,4.8l4.5,0.9l-5.6-5.6l0.3-2.9l-9.9-5.2
				v10.8L449.4,165.9z M459.9,160.1l2,1.2l3.5-1.9v-2L459.9,160.1z M462.7,154.4l4,2.9l1.6-0.6l-4.1-2.4L462.7,154.4z M378.4,111.6
				l-4.4-7.2l1.1-3.1l-2.5-1.1l-3.4,2.4l-1.6,11l2.5,2.1l1,5l1.8,0.5l1.3-1.6l2.4,2.7l1.3,4.9l-0.3,5l2-4l-3.6-13.2l2.5-1.8
				L378.4,111.6z M385.7,117.8l2.9,4l-2.7,2.7h6.1v-1.6l-6-6.3l-1.3-4.1l-4.1-2l-2.2,1.1v1.7l2.1,1.2v3.2L385.7,117.8z M380.5,117.8
				v-3.2l-2.1-1.2l-2.5,1.8l3.6,13.2l-2,4l-0.1,2l3.5,3l0.3,1.1l2.1-0.3l-3.4-5.1l0.8-7.8l3.9,3.8v-3.2l3.9-3.9l-2.9-4L380.5,117.8z
				 M384.6,125.7v3.2l1.9,1.9l2.2-0.3l3.2-2.4v-3.6h-6.1L384.6,125.7z M386,116.6l6,6.3v5.2l-3.2,2.4l0.1,3.5l6.2-4.1l-0.2-6.1
				l-6.5-6.8l0.3-3.7l2.3-1.3l-5-4.3l-5.4,2.8l4.1,2L386,116.6z M360.2,103.4l-1.4,0.6l1.9,6.1l1.2-1.2l5.6,4.7l0.4-2.5l-2.9-2.7
				l-0.5-3.3l-2.3,1L360.2,103.4z M362.3,102.9l-3.4-0.8l0.5-2.1l-1-0.3l-2.1,3.3l-11.4-4.3l0-3.6l-2.8-1l-0.3-6.4l-2.5-1.1H337
				l-3.4,2.4l-0.1,2.1l2.1,1.2l1,4l-4.5,4.1h-2.9v3l2.1,0.8v2.6l-3.9,1l0.3,0.4l3.2,1l-1.5,1.5l1.4,1.8l2.5,0.3l0.5-2.1l1,0
				l8.1,23.4l5.2-3.2l0.8-9.4l11.8-11.4l-1.9-6.1l1.4-0.6l2,2.7l2.3-1l0.5,3.3l2.9,2.7l1.2-8.5l3.4-2.4l-5.7-2.5l-3.9,3.5
				L362.3,102.9z M345,95l0,3.6l11.4,4.3l2.1-3.3L345,95z M359.3,100l-0.5,2.1l3.4,0.8l0.8-1.7L359.3,100z M294.9,72.8l2.4,2
				l3.1-0.8l2.7,2.3l-0.5-5.9l4.2-1l5.5,3.8l4.6-0.9l3.4,4.5l3.3-0.1l3.2-2.6l7.5-0.3l4.8,2.2l-1.2-5.8l7.5-5.7l-4.3-2.5l-25.2-8.9
				l-10,2.2v4.5h-17.6v5.8l2.4,3l5-2l3,2l-3.6,1.8L294.9,72.8z M314.3,86.7l-1.7-2.7l-6.6-2.1l-3.9,1.3l-0.1,1.7l-5,0l-2.7-4.8
				l-6.5,0.6v1.9l8,13.5l2.4,0.2l5.5,5.7l10.1,3h2.8l2-3.5l-2.2-2.8l-3.2-9.3L314.3,86.7z M303.1,76.2l-2.7-2.3l-3.1,0.8l4.9,4.1
				l-0.2,4.3l3.9-1.3l6.6,2.1l1.7,2.7l6.3-3.2l-10.4-8.3h-4.4L303.1,76.2z M329.3,100.2h2.9l4.5-4.1l-1-4l-2.1-1.2l0.1-2.1l3.4-2.4
				h2.3l-4.8-2.2l-5.1,0.7l-1.6,7l-5.9,5.4l-6.3-0.1l0.5,1.4l2.2,2.8l-2,3.5h8.8l2.3,2.6l3.9-1v-2.6l-2.1-0.8V100.2z M312.4,73.2
				l-5.5-3.8l-4.2,1l0.5,5.9l2.7-1.1h4.4l10.4,8.3l3.4,0.9l-1.5-4.5l4.8-1.4l0.3-2l-7.1,0.3l-3.4-4.5L312.4,73.2z M314.3,86.7
				l-1.3,2.7l2.7,7.9l6.3,0.1l5.9-5.4l1.6-7l-1-2.9l-4.5,2.3l-3.4-0.9L314.3,86.7z M328,80.7l-4-1.3l-1.6,0.5l1.5,4.5l4.5-2.3l1,2.9
				l5.1-0.7l-0.8-0.3l-1.5-3.6L328,80.7z M326.8,74l-3.2,2.6l3.8-0.2l-0.3,2l-3.2,0.9l4,1.3l4.3-0.4l-0.7-1.6l7.5-2.8l-4.8-2.2
				L326.8,74z M288.3,77.7l2.9,2.6l3.1-0.3l-2.2-3.8l-2.4-0.6L288.3,77.7z M282.1,76.7l4.3,1.1h1.9l1.5-2.1l-5.5-2.5l-2.2,0.5V76.7z
				 M287.7,80.7l3.4-0.3l-2.9-2.6h-1.9L287.7,80.7z M255.2,48l-1.1,0.3l0.3,0.2l-0.3,1.5l-3.2-1.5l0,1.9l4.3,1.1l3.1,1.4l1.2-1
				l-0.4-3.1l-1.6,0.5L255.2,48z M250.9,52.5l2.4,0.8l0.7,1.4l0.5,1.5l3.8-3.2l-3.1-1.4l-4.3-1.1L250.9,52.5z M263.1,51.8h-3.6
				l-5,4.3l0.8,2.2l7.2,1.2l4.5-1l-2.7-1.1l1.6-1L263.1,51.8z M253.1,46.2l-0.4,1l1.4,1l1.1-0.3l2.3,1.3l1.6-0.5l-0.5-3.5l-0.9,0.8
				L253.1,46.2z M262.5,59.5l-7.2-1.2l0.5,1.3l-2.6,3.2v1.8h9.8l0.9,1.8l-1.7,2.6l1.5,0.6l0.4-1.2h5.8l-1.3,1.3l1.8,1l2.4-0.2
				l-2.3-2.9l6-1.3l1.5-3.4l-11-4.5L262.5,59.5z M248.7,31.3l-10.1,7.4v6.6l-1.4,2.2l3.8,4.4l6.2-5.5l-2.9-3.6l6.5-7.1h1.3l-1.8-4.3
				L248.7,31.3z M230.9,48l5.9-1l0.4,0.5l1.4-2.2v-6.6l10.1-7.4h5.6v-1.8l-5.7,0.3L229,43.3L230.9,48z M254.3,31.3h-3.9l1.8,4.3h1
				l-3.1,7.1l3.7,1.9h5.6l3.1-3.6l-5.2-11.7l-2.9,0.1V31.3z M423.7,63.7h1.9l-6.8-7l-1.9-0.1l5.5,6.8l2.7,5h2L423.7,63.7z
				 M253.2,53.3l-2.4-0.8l0,1.6l3.1,0.6L253.2,53.3z M397.3,29.2l-1.9-2.5l-11.4-1.9l-3.2,2.9h-9.3l-3.9-2.9h-20.9l-1.3-4.6h-19.3
				l-17,7.6l3.7,4.6l-3.2,3.3l-2.9-9.5l-5.1-0.4l2.5,5.6L284.2,32l-18.6,7.6l-2.5-4.7l7.1,0.3l3.4-1.7l-13.5-4.3l-2.9,0.1l5.2,11.7
				l-3.1,3.6l-0.8,0.7l0.5,3.5l0.4,3.1h3.6l2.8,4.5l-1.6,1l2.7,1.1l11,4.5l-1.5,3.4l0.7,1.7l-1.8,0.5l0.3,2.8l6.4,2.2l2.2-0.5
				l5.5,2.5l2.4,0.6l-1.5-2.6v-5.2l-2.4-3v-5.8h17.6v-4.5l10-2.2l25.2,8.9l4.3,2.5l5.3-4.1l7.1,2.2l1.9-4.3l17.6,4.3h8.6l3.2-0.6
				l-1.7-6.1h7.5l7.7,7.6l10.5,2.7v8.5l4.6-0.8l2.5-3.7v-6.9l-7.1-8.1l-6.9-0.1l1.2-8.5l14.2,0.1l1.5-4.8l6,2.3l0-2.2l1.5,0.2
				l2.6,2.5l-2.5,1.7l-0.3,5.1l10.1,9.6v-9.2l-5.7-5.5l13.5-4.3l0.2-1.4l-6.8-1.8l2.6-2.1l6.1,1.3l4.1,0.1l-3.3-3.5l-21.2-4.2
				L397.3,29.2z M246.2,65.1l-2.5,2l3.6,1.3l3.9-0.7l3.1-3.2h-1.2v-0.8L246.2,65.1z M244.4,63.3l1.9,1.8l6.8-1.3v-1.1l-6.2-0.8
				l-0.3-0.1L244.4,63.3z M231.3,68.3l2.2,0.2l2-0.5l-0.7-2.2H233l-1.2,0.6L231.3,68.3z M239.8,63.3h4.6l2.2-1.4l-4.4-1.7l-3.9,1.2
				L239.8,63.3z M209.2,84.3l0.9,0.1l1-8.7l-3.4-0.6l-0.2,6.4L209.2,84.3z M262.1,69l1.7-2.6l-0.9-1.8h-2.9L262.1,69z M253.9,54.6
				l-3.1-0.6l-3.2,0.1l-0.7-0.7l-4.6,1.1l-0.4,0l0.4,5.6l4.4,1.7l0.2,0.1l6.2,0.8l2.6-3.2l-0.5-1.3l-0.8-2.2L253.9,54.6z
				 M254.3,64.6l-3.1,3.2l2.7,4.6l6.8-0.8l2,0.5l0.8-2.5l-1.5-0.6l-2.1-4.4L254.3,64.6z M241.8,54.6l-5.9-0.1l-0.3-1.1h-2.1l0.4,1
				l-3.1,1.9l-0.3,5.4l1.9,1l-0.8,3.6l1.2-0.6h4.4l0.4-0.1l3.2-0.9l-1.1-1.5l-1.5-1.9l3.9-1.2L241.8,54.6z M233.6,53.5h2.1l-0.1-0.4
				l0.7-3.8l-1.9,0l-1.3,3L233.6,53.5z M239.1,52.2l-1.2-1.2l-1,0.4l-0.3,1.6l1.9,0L239.1,52.2z M240.9,64.8l-3.6,1h-2.5l0.7,2.2
				l3.8-0.9h4.4l1.8-1.5l0.7-0.5l-1.9-1.8h-4.6L240.9,64.8z M243.1,82.2h-3.9v1l1.4,1l2.4,0.4V82.2z M233,76.7v4h1.9v-3.4L233,76.7z
				 M231.3,68.3L231,70l2.2,1h2.6l8,8l0.4,3.4l1.5-0.9l0.5-2.4l1.8-0.4l-9.8-8.4l2.8-0.2l-1.6-3l-5.8,1.3L231.3,68.3z M233.9,74v1.6
				l0.9,0.3l0.4-2H233.9z M215.4,64v1.2l3.3,1.8l0.4,5.9l4.9,3.1l1.5-2l7.2,0.1l0.2-3h0.2l-2.2-1l1.5-7.3l-6.6-3.4l-7.7,4.6
				L215.4,64z M227.8,58.3l-1.8,1.1l3.7,1.9l1.1-0.6l0-0.9L227.8,58.3z M230.7,59.8l0.2-3.4l-3.1,1.9L230.7,59.8z M229.6,61.3l1,0.5
				l0.1-1.1L229.6,61.3z M217.6,52.9l0,2.5l-1.7,0.9l1.5,2.2l-3,2.9l4-0.7l4.1-0.6l0.3-1.5h0.8l0.2-1.7l-2.6-0.6l-3.3-7.6l-2.5-0.1
				v4.1L217.6,52.9z M214.4,54.7v-1.6l-2.9-0.2l1.7,2.3L214.4,54.7z M208.5,55.1v4.4l1.7,0v-1.5l3.2,0.4l-0.2-3.3l-1.7-2.3
				L208.5,55.1z M210.1,84.4l7.1,0.5l7-8.9l-4.9-3.1l-11.4,0.1l-0.1,2.2l3.4,0.6L210.1,84.4z M225.7,80.6v-1.9l-2.2,1.9H225.7z
				 M251.5,78.4l4.5-1.4l-1-2.4l-3.7,0.7L251.5,78.4z M248.6,68.3l0.8,4.6l1.8,2.5l3.7-0.7l-0.9-2.2l-2.7-4.6L248.6,68.3z M241,70.1
				l0.4,0l2.1-1.1l0.9-1.6l-0.7-0.3h-4.4L241,70.1z M263.3,79l-3.3,0l2.7,5.5l12.6,0.7l12.4-2.5v-1.9l-1.4-3l-4.3-1.1l-17.2,0.6
				L263.3,79z M260,77.7h3.1l-1.2-2.7l-1.9,0.6L260,77.7z M246.2,74.2l1.1,0.3l2.1-1.6l-0.6-3.4l-4.6,0.6L246.2,74.2z M249.8,78.9
				l1.4,1.6l2.7,0.8l-1.7,0.7l2.2,2.8l1.4-2.2l-1.5-3.4l3.1-1.5h2.5l0-2.1L249.8,78.9z M247.4,68.5l-2.9-1.1l-0.9,1.6l-2.1,1.1
				l0.7,0l3.4,3.9l0.7,0.2l-1.9-4.1l4.5-0.6l-0.2-1.2L247.4,68.5z M248.7,74.8l1.6-0.9l-0.8-1.1l-2.1,1.6l2.2,4.2l0.2,0.3l1.7-0.5
				l-0.2-3.1l-1-1.4L248.7,74.8z M255.9,77l5.9-1.9l1-3l-2-0.5l-6.8,0.8L255.9,77z M299.7,105.1l1.4,0.9l0.9-0.9l-1.6-2.2
				L299.7,105.1z M272.5,86.6l-3.6,1.3l2.6,0.6L272.5,86.6z M274.9,91.2v6.5l1.4,0.2l2-0.9l0.6-3.6l1.6-0.7l0.1,0l-0.5-1.9l-3.2,1.9
				L274.9,91.2z M299.2,104.8l-3.5-5.8h-1.5l-1.1-1.4l-3,0l-9.6-5l-1.6,0.7l-0.6,3.6l-2,0.9l-1.3-0.2l12.5,21.7l0.2,0.8l1.3-2.2
				l4.4,0.6l-0.4,1.7l6.3-3.3l8.9-2.4v-4.6l-4.6-0.7l-1.4-2.6L299.2,104.8z M291.6,97.6l1.4,0l1.1,1.4h1.5l-1.9-3.1H292L291.6,97.6z
				 M282.6,89l-2.6,1.6l0.5,2l9.5,5l1.6,0L292,96l3.5,0l-7.8-13.3l-3.6,0.7L282.6,89z M305.4,107.4l-3.4-0.7l1.4,2.6l2.6,0.4
				l3.7-3.8l-1.7-1.5L305.4,107.4z M306.1,109.6l2,0.3v4.6l-4.5,1.2v2.7l2.5,1.7l8.2-10.2l-4.5-4L306.1,109.6z M276.3,88.5l-1.5,2.7
				l1.9,1.4l5.9-3.5l1.4-5.7l-8.8,1.8l-0.6,2.8L276.3,88.5z M299.2,116.9l-6.3,3.3l0.4-1.7l-4.4-0.6l-1.3,2.2l2.2,7.2l16.3-7.3
				l-2.5-1.7v-2.7L299.2,116.9z M274.9,91.2l1.5-2.7l-1.6-0.6l-0.6,2.7L274.9,91.2z M274.8,97.7L274.8,97.7l0-6.5l-0.7-0.5l-1.1,4.1
				L274.8,97.7z M288.2,189.9l1.7,4l4.1,0.2l6.9-22.2h-2.5l-8,8.4l-0.8,5.8L288.2,189.9z M243.5,135.3l-1.2-3.5h2.4l-2.9-6.2v3.4
				l-4.2,8.7l-3.6,0.2l-0.5,3.6h1.6l-0.1,3.6H245l0.4-1.3h0l-3-4.2L243.5,135.3z M237.7,147.7h-2.8l-0.1,4.3l3.6,4.9v-4.1h4.7
				l-2.4-7.7h-3v0h-2.8l-0.1,2.6H237.7z M228.2,138.6l0.6,2.9h4.5l0.5-3.6l3.6-0.2l4.2-8.7v-3.4h-15.6l-2.5,12.3L228.2,138.6z
				 M205.1,136.2l1.1,1.3v5.4l8.5-2.5v-7.9l-8.3-1.6v4.1L205.1,136.2z M206.3,142.9v-5.4l-3.1-3.5l-2.7,2.6L206.3,142.9z
				 M257.6,167.9l-2.9-1.4v-5.4h-3.3l-0.7,2.4l-3.3,0.1l-0.9-3l-5.3,0v11.7l-3,4.9l0.3,3.2H257l-3-3.8v-4.2h3.7L257.6,167.9z
				 M220.6,138.8l-1.4-8.4h-4.4v10.1L220.6,138.8z M240.6,145.1l2.4,7.7h-4.7v4.1l1.8,2.4l4.4-2l4.7-7.8l0.7-5.8h-4.6l-0.4,1.3
				L240.6,145.1z M284,123.8l2.8,4.3l1-0.9l-7-12l-3.6,8.5H284z M200.5,136.6l2.7-2.6l-2.8-3.1l-2.7,2.7L200.5,136.6z M287.5,131
				l1.8-1.3l-1.4-2.5l-2.1,1.7L287.5,131z M274.6,170v2.6l2.3,1.5v3.2l-2.1,1.9v-3.8l-2.1-1.8l-0.1,0l-4.1,2.8l4.1,2.7v3.7l-2.5,5.9
				v6.6l1.8,0l0.1-0.9l3.8-2.7l-0.3-8l8.9-7.3l-0.9-8.4L274.6,170z M289.3,129.7l-1.8,1.3l1.8,2l7.1,2.5l-11.1,9.2v8l17.4-20.2
				L302,129l-12.1,1.8L289.3,129.7z M245.1,199.2h6.7v-17h8.8l-1.1-1.6h-21L245.1,199.2z M278,140.9l-3,0.4l0.9,3.7l-0.4,3.2
				l-1.4,2.4l8.3,5.5l2.9-3.4v-8l3.2-2.7h-9.4L278,140.9z M274.1,150.6l-0.5,0.9h-3l0.8-1.3H270l-3.1,7.6l5.6,7.8h2.1v4.4l8.9-1.9
				l-1.1-12.1L274.1,150.6z M206,103.1H201v5.7l-1.8,2.8h-6.1l-0.2,6.4l7.5,5.4v-1.9h9l-0.9-15.4h4.8l-7.3-5.4L206,103.1z
				 M268.8,153.3l1.2-3.1h-2.6l-0.8,3.6L268.8,153.3z M266.9,157.8l1.8-4.5l-2.2,0.5l-0.6,2.6L266.9,157.8z M194.8,130.5l2.9,3.1
				l2.7-2.7l2.8,3.1l1.9,2.2l1.4-1.2v-4.1l-0.6-2.9h-8.6L194.8,130.5z M209.4,121.4h-9v1.9l2,4.6h3.4l0.6,3l4.2,0.8v-4.2l16-6.5
				v-5.3l-13.3-9.8h-4.8L209.4,121.4z M264.9,169.1l3.2,1.3l-1.1,2.2l-9.5-4.7l0.1,4.7H254v4.2l3,3.8h5.7l9.8-6.8v-8.1l-1.2-1.7
				l-5.4,0.8L264.9,169.1z M251.7,193.1l2.7,3.1l10.9-7.3l-4.8-6.7h-8.8V193.1z M210.6,131.7l4.2,0.8v-2.2h4.4l5.1-1.9l-4.9-4.4
				l-8.8,3.6V131.7z M272.5,165.6v8.1l0.1,0l2.1,1.8v3.8l2.1-1.9v-3.2l-2.3-1.5v-7H272.5z M286.8,128.1l-2.8-4.3h-6.8l-4.8,11.3
				l6.6,6.9h9.4l7.9-6.5l-7.1-2.5l-3.5-4L286.8,128.1z M267.3,150.2h4l1.1-2h3l0.4-3.2l-0.9-3.7l-5.7,0.8L267.3,150.2z M226.6,115.8
				v5.3l-7.2,2.9l4.9,4.4l1.3-0.5l0.5-2.4h15.6l3.5-7.2l-1.4-9.5h-7L226.6,115.8z M193.1,111.6h6.1l1.8-2.8v-5.7h4.9v-3.4h-5.4
				l-7.3,9.6L193.1,111.6z M192.7,124.1l4.9,1.4h-5l-0.1,2.4h9.9l-2-4.6l-7.5-5.4L192.7,124.1z M197.6,125.6l-4.9-1.4l-0.1,1.4
				H197.6z M245.2,118.3l-3.5,7.2l2.9,6.2h-2.4l1.2,3.5l11.7-5.5v-6l2.6-2.6l0.3-5.8l-10.1-6.5h-4L245.2,118.3z M245.3,94.7
				l-2.1-2.6l-4.6-1.1l-4.2,4.6l2.8,13.3h10.8l10.1,6.5l1-22.4l-5.9-0.8l-2.4,3.7L245.3,94.7z M205.1,99.7h0.9V99l12.2-6.7v-4.8
				l-9,0.9l-8.7,11.3L205.1,99.7z M218.2,87.5v4.8L206,99v1.6l20.6,15.2l10.3-7h0.2l-5-24.2l-5.9-0.2L218.2,87.5z M232.1,84.6
				l2.3,10.9l4.2-4.6l-1.7-0.4l0.2-5.8L232.1,84.6z M259.4,180.6l5.9,8.3h4.6l2.5-5.9v-3.7l-4.1-2.7l-5.8,4H259.4z M262.1,203.2h2.4
				l1.4-1.5v-1.9H264l-1.8,1.2V203.2z M269.9,194.9h-1.8v1.6l1.8,1.1V194.9z M274.8,97.8L274.8,97.8l-1.8-3l-14-1.9l-0.8,17h15.4
				l3.1-1.8l-6.4-11l3.5,2.8L274.8,97.8z M276.7,108.1l-3.1,1.8h-15.4l-0.5,11.2l-2.6,2.6v6l9.2,10.6l4.9,1.8l8.8-1.2l-5.5-5.8
				l4.8-11.3l3.6-8.5L276.7,108.1z M265.9,156.4l3.4-14.2l-4.9-1.8l-13.9,0.4l-1.1,8.8l-4.7,7.8l-4.4,2l1,1.3l5.3,0l0.9,3l3.3-0.1
				l0.7-2.4h3.3v5.4l12.4,6.1l1.1-2.2l-3.2-1.3l1-4.4l5.4-0.8L265.9,156.4z M242.4,139.5l3,4.2h4.7l0.4-3.1l13.9-0.4l-9.2-10.6
				l-11.7,5.5L242.4,139.5z M225.6,128l-4.4,1.6l1.4,8.6l0.9-0.2L225.6,128z M221.2,129.6l-2,0.8l1.4,8.4l2.1-0.6L221.2,129.6z
				 M194.8,130.5l2.4-2.6h-4.7l0,0.1L194.8,130.5z M58.5,30.2l-3.7-1.5l-19.1,0.1L28,31.9v3.4l-8.7-0.1l-1.6,2.3l7.3-0.3l-9.4,3.5
				L11,47l3.9-0.1l-7.5,4.9l2.7,0.2l14.4-6.9l16.6-0.6l5,5l1.9-2.1l-1.7-1.7h-1.9l-1.8-2.1L58.5,30.2L58.5,30.2z M46,62.2L43.4,60
				l-1.1,1l1.8,2.4H46V62.2z M146.8,65.5l-2-3.1l-1.8-0.4v-2.3l-5.7,5.8H146.8z M143.8,29.2l-11.5-4.7l-1.7,0l-4,3.3l1.3-3.3l-1.9,0
				l-4.7,5l11.4-0.6l6.9,6.2l-4.7-0.1l-2.4,1.9h-5.3v1.5h5.4l4.6,3.8l1.2-0.5l-1.1-2.4l3.1,1.5l1-0.4v-4.7l3.6,1.3l2.1-1.4l-1.2-2.2
				l-2.1-0.8L143.8,29.2z M104.9,71.3h3.3l2.3-1.6h7.5l3.2-2.8h2.9l-1.1,3.3l5.1-0.9l-3.4,1.6l0.3,1.4l9.2-3.2l-4.5-0.2l-2.1-1.9
				l2.1-3.2l-1-1l-6.5,2.9v-1.7l6.2-3l9.9-0.4l7.5-4l0-1.8l-5.4-0.9L140,45l-7.1,2.8l0.1-4.2l-3.4-2.9h-4.7l-12.6,18.4l-3.1,0l0.1-6
				l-10.9-5.9l10.9-8.1l6.2-1.1l-1.3-1.9l9.5-1l3.9-4l-3.6-0.4l-5,3.3l0.6-2.8l-2.3-0.2l-0.6-3.4l-4,1.8l1.1,2.2l-5.4,2.6l-9.4-1.8
				l-5,2.3l-12.1-4.8l-23.1,0.5L42.7,43.8l1.8,2.1h1.9l1.7,1.7l-1.9,2.1l-1.9,8.8l3.5,3.1v1.7h38.8l4.6,2.1l7.7-1.6l1,3.4l1.6,1.2
				l2.6-0.2L104.9,71.3z M118.9,36.8l-3,2.4l5.8,0.6l0.6-1.5L118.9,36.8z M107.5,30.7l1.1,1.4l2.8-1.4l-0.8-1.3L107.5,30.7z
				 M109.6,26l1.8,1.8l3.8-1.3l1-2.6L109.6,26z M116.8,24.9l0.5,1.7l5.1-1.4l-1-1.4L116.8,24.9z M129.9,21.4l-2.8-1.2l-2.7,2.3
				l11.1,0.9l2.9-2H129.9z M156.9,15.1l5.8-3.3l-23,1.7v1.2l7.8-0.2l-1.1,1.4l-8.1,0.2l1.1,1.9l-3.5-0.6l1.4,1.8h-6l0.9,0.9h6.5
				l1.1,0.9l9.5-4.4L156.9,15.1z M128.8,16.5l4.3,0.8l2.5-1.6l-1.8-1.3L128.8,16.5z M83.5,27.7l10.1-3.4l-2.3-1.1l-9.5,2.4
				L83.5,27.7z M94.8,24.9l-5.4,1.8l3.2,1.3l-5,1.3l6.2,2.4l4.3-1.9l4.8,1.1l3.6-0.8l-3.5-1.6l2.7-3.5h-2.7l-1.6,2.1l-0.7-2.1
				l-2.8,1.1L94.8,24.9z M87,109.8h4.9l4,2.7l-1.5,1.7h6.9l-8.3-6h-4.4L87,109.8z M93.9,117.2l1,0.9h3V117l-1-1.1h-3V117.2z
				 M112.2,116.4l-0.6,1h1.7l0.6-1H112.2z M75.5,120.7h-2.8l-1.3,2.4l4,2l2.7-4.9l-0.5-2.6H75L75.5,120.7z M78.6,124.6l-0.5,1.7
				l0.7,0.3l6.7-5.6l-8,0.1l-1.3,2.4L78.6,124.6z M78.1,126.3l0.5-1.7l-2.5-1.1l-0.9,1.5L78.1,126.3z M80.6,115.2l-3.1,2.3l0.5,2.6
				L80.6,115.2z M81.4,130.1l4.3,0.5l-0.2-9.5l-6.7,5.6L81.4,130.1z M88.4,156.4l3.6,1.7l6.3-7.8l-6.5-3.7l-3.1,3.9L88.4,156.4z
				 M101.4,128.9l-1.7,0l-3.6,4.9l-1.8,0.1l0.5,1.8l-1,1.4l0.7,2.5l-0.7,4.6l-2.1,2.6l14.8,8.4v-9.5l3.4-0.2v-7.5l-5.6-0.6l-2.4-2.7
				L101.4,128.9z M124.9,243.7l2.2,2l6.8,0.2l-7.3-3.8L124.9,243.7z M135.3,194.9l-3,1.8h-4v-3.5l-8.1-5.5l-0.5,0.8H113l-1.8,16.9
				l3.8,16.8l3.5,6.2l0.2,4.6l5.1,7.9l1.9,0.2l-1-20.1l10.9-4.7l-4.9-6.9v-7.6l4.8-4.9L135.3,194.9z M136.5,211.5l2.4-4.1l-8.2-5.6
				v7.6L136.5,211.5z M113.5,131.6l-3.7-2.6l-8.5-0.1l0.5,5.7l2.4,2.7l5.6,0.6v7.5l0.9-0.1l1.1,2.6l3.7-1.2l-0.3-4l4.9-1.8l1.4-7.2
				l-1.6-1.6L113.5,131.6z M81.4,130.1l2.9,3.9l1,0.4l1.5-1.9l-1-0.6l0-1.4L81.4,130.1z M126.8,138.6l-5.1-4.9l-1.4,7.2l2.1-0.8
				l-0.3,6.1l4.9-0.6l-1.7-4.3L126.8,138.6z M114.2,168.1l-5,1.4V181l3.8,7.6h6.8l2.6-4.8l5.1,0l-0.1-3.8l-8.7-7.1L114.2,168.1z
				 M131.4,145.2l3.3-0.4l1-2.8l-1.3-2.8l-2.7-0.2L131.4,145.2z M127.5,183.7l-5.1,0l-2.2,4l8.1,5.5v3.5h4l3-1.8l-0.2-2.8l-7.4-4
				L127.5,183.7z M127,145.7l4.4-0.5l0.2-6.2l-4.8-0.4l-1.5,2.8L127,145.7z M147.6,151.9l-3.7-1.6l-3.7,2.2l1.2-3.3l-2.5-1.1
				l-3.5,2.7l2.6-3.8l-2.2-4.9l-1,2.8l-12.6,1.4l0.3-6.1l-2.1,0.8l-4.9,1.8l0.3,4l-3.7,1.2l-1.1-2.6l-4.3,0.3v11.2l-4.4,0.5
				l-1.9,6.3l7.4,6.3l6.6-1.9l4.5,4.6l8.7,7.1l0.3,8.3l7.4,4l0.3,4.6l-4.8,4.9l8.2,5.6l4.8-8.4l1.1-7.2l11.7-5.2l2.2-16.1l5-6.6v-4
				l-8.2-5.4l-8.1-0.5L147.6,151.9z M89.9,132.3l-1.4,1.1l-1.8-1l-1.5,1.9l4.3,1.5l1-1.6l2.5,0.2l0.7,2.4l1-1.4l-0.4-1.6l-0.5-2
				L89.9,132.3z M102.1,157.3l4.4-0.5v-1.7l-8.3-4.7l-6.3,7.8l-3.6-1.7l-0.1,1.8L99,176.6l9.3,6.2l0.8-1.9v-11.4l-1.6,0.5l-7.4-6.3
				L102.1,157.3z M115,222.2l-3.8-16.8l1.8-16.9l-3.8-7.6l-0.8,1.9l1.6,38.2l4.1,3.3l0.2,6.9l7.2,9.3l2.3,0.2l-5.1-7.9l-0.2-4.6
				L115,222.2z M110,115l-4.9-0.5v2.7l1.6-1.2h2.6L110,115z M105.1,116.5v-2h-3l1,1.4h-1.8v0.6H105.1z"/>
			<path class="st0" d="M481.4,220l-1,3.2l7.3-5.2l-2.1-2.8V212l-1.2,0.5v4.5L481.4,220z M462.2,230.5l15.2-7.7v2l-11.7,7.7
				L462.2,230.5z M399.9,191l12.8-6l9.5-10.5l5.2,2.3l2.3-4.8l8.7-0.2l-2.2,4l7.2,6.2l4.8-4.8v-6.7l2.2,0.7l2.5,12l7.8,11l-0.8,8.3
				l-14.2,14.7l-12.3-0.7l-1.5-8.3l-4.2,1.8l-4-3.5l-24.3,5.3l-1.5-1.8l2-4.8V191z"/>
		</g>
	</g>
	<g>
		<path class="st1" d="M265.9,201.8l-1.4,1.5h-2.4v-2.1l1.8-1.2h1.9V201.8L265.9,201.8z M269.9,195.5v2.1l-1.8-1.1v-1.6h1.8v-6h-4.6
			l-10.9,7.3l-2.7-3.1v6.1h-6.6l3.9,10.6h12.7l9.8-11.3l0.4-3.1L269.9,195.5L269.9,195.5z M98.3,76.1l2.5-1.7h3l-2.5,1.7
			C101.4,76.1,98.3,76.1,98.3,76.1z M121.3,67l-3.2,2.8h-7.5l-2.3,1.6h1.8l-2.5,1.7h-1.8l2.5-1.7h-4.9l-2.1,1.6l-2.2,0.2l0.4-3.7H98
			L96,70.8l-3.6,5.3h-2.1l4.1-6.6l4.8-1l-0.3-0.9l-3.2-0.1l-1.5-0.9l-1.9,0.9h-2.2l0.9-1.9l-4.6-2.1H47.7L34.9,76.9v10.4l4.7,4.7
			L55.9,94l2.2,3.3l4.6-0.2l3.8,7.4l7.1-8.9l16.8,0.1l1.1,8.4l2.7,0.1l0.1-10.4l27.2-23.2l1.9-0.3l1.1-3.3L121.3,67L121.3,67z
			 M137.4,65.5h9.5l-2-3.1l-1.8-0.4v-2.3L137.4,65.5z M67.1,116.3l-3.7-7.9l3-3.8l-3.8-7.4l-4.6,0.2L55.9,94l-16.3-2.1l0,0l0.7,7.3
			l5,9.5l2.1-1.6l-4-8.4V94h2.3l0.1,4.4l7.5,17.6l12.2,5.1l3.1-0.8l2.7,2.7l1.3-2.4h2.8l-0.4-3.1h2.4l3.1-2.3l0.1-3.4l-3.4-0.1
			l-2.7,4.5L67.1,116.3z M202.5,39.9l4.5-2.2v-0.6l-2.2-2.3l-3.1,1l-3.8-0.1l-0.8,1.1l-2.1,0v2L202.5,39.9z M242.9,87.9l0-2.1
			l-2.4-0.1l0,1.6L242.9,87.9z M150.8,19.3v2.3l11.3,0.2l2.9,5v4.5l-5.4,3.1l0.2,6.1l3.4,3.4h4l6.1-6.5l8.7-2.6l3.2-2.5l6.6-0.4
			l4.6-1.4l8.6-13.8l5.3-1.1l1.9-1.9l-15.4-1.5l-13.3,1.5h-16.1l-9.3,3.2L150.8,19.3z M412.4,106.3l-1.3-1.4L409,108l2.1,2
			L412.4,106.3z M391.8,68.4l0.4-2.4l-4.5-0.7l-1.7-2.8h-8.6l-17.6-4.3l-1.9,4.3l-7.1-2.2l-5.3,4.1l17.4,10.1l20.1,0.2l2.4-4.9
			L391.8,68.4z M395.6,114.4L393,115v1.5l1,1.3l1.5-1.9V114.4z M386,62.5l1.7,2.8l4.5,0.7l-0.4,2.4l-6.5,1.4l-2.4,4.9l-20.1-0.2
			l-17.4-10.1l-7.5,5.7l1.2,5.8l-7.5,2.8l2.1,5.3l8,3.7l0.3,6.4l20.9,7.2l3.9-3.5l8.2,3.5l-1.1,3.1l4.4,7.2l7.6-3.9l5,4.3l2.1-1.2
			l0.1,2.1l12.5-4.5l4.1-9.1l-7.3-12l3.7-4.1h-4.3l-1.4,0.9l-2.7-4.4l3.4-3l2.4,4.5l3.3-2.3l6.4-4.4V66l-10.5-2.7l-7.7-7.6h-7.5
			l1.7,6.1L386,62.5z M429.4,75.2l2.9,0l1.2-2.1l-6.5-2.7l0.1,5.4l1.3,0.8L429.4,75.2z M421.3,87.7l-0.5,1.7l6.5-1l0.5,2.5l1.5-0.6
			l0.2-2l4.3-1.1l-0.2-5.7l-2-3.4l-2-0.6l1.1,5.2l-4,3.6L421.3,87.7z M420.1,90.9l2.3-0.3l0.8,1.1l-0.8,2.7L420.1,90.9z M426.4,89.8
			l-1.1,2.1l-1.5-1.7L426.4,89.8z M419.3,124.8l-3.5-0.4l-1.3-1.6l1.3-3l-1.3-2.8l-2.3-0.1l-0.6,5l3.3,4l3.9,0.5L419.3,124.8z
			 M408.1,133.7l1.6,0.3l2.8-2.3l-0.1-1.9L408.1,133.7z M420.4,137.3v2.2l2.3-0.7l-0.8-1.4l1.9-0.5l-1.6-5L421,135h-3.9L420.4,137.3
			z M413.5,126.2l1.7,1.6l-0.5,1l-1.3-1.3L413.5,126.2z M415.1,130.2l1.2,0.8l1.3-1.9l-1.7-0.2L415.1,130.2z M419.5,128.1l1.6,2.1
			h1.8l-1.7-2.7L419.5,128.1z M419.5,129.9l0.9,1.6l-0.7,1l-1.3-1.9L419.5,129.9z M417.6,131.5l0.8,1.2l-0.8,1l-1-1.2L417.6,131.5z
			 M420.8,164.2l1.1,1.5l3.1-0.4v-1.1H420.8z M396.2,146.6l0.1,4.3l2.5,4.3h7.8l3.9-4.9v-9l-2.8,0.3l-2.3,4.3l-7.6,1.7L396.2,146.6
			L396.2,146.6z M390.6,157.9v-3.3l-12.9-13.4l-4.4-1.7l14.9,20.3L390.6,157.9z M405.7,163.8l0.2,1.1l-16.1-2.7l2.4-1.9l4,1.5
			l3.6-0.8L405.7,163.8z M416,163.8h-2.5l0.5,1.6h2.4l1-0.8L416,163.8z M411.6,166.4l0.7,0.9h1.7l-0.6-1.3L411.6,166.4z
			 M420.8,164.2l-2.5,2.8l1.9,0.2l1.7-1.5L420.8,164.2z M412.5,159.3l1.9-0.6l-0.6-3.3l1.1-1.2l0.9,2.4l2.2,0.8v-1.7l-1.2-2.8l2.4-2
			l-3.8,0.2l-0.8-1.1l1.5-1.6l2.8,1l1.4-0.1l2-2.4l-1.8,0l-1.2,0.8l-3.9-0.9l-2.6,2.3l0.2,3.7l-1.5,2L412.5,159.3z M426.4,154.1
			l-0.4,1.5l4.2-0.4v-1.1H426.4z M427.3,144.4l-1.4,1.4l-0.5,3.4l1.9,0.5l-0.4-3.1l1.1-1.4L427.3,144.4z M436.8,153.5l-0.6-3
			l-4.6,0.6L436.8,153.5z M436.5,156l6.4,2.7l1.1,3.3l-2.1,1.3l5.5,1.9v-10.8L443,152l-4.1,3.4l-4.4-1.7l-0.5,2.4L436.5,156z
			 M417.5,84.8l-4.3-3.5l-1.9,1.8l2.6,5.6l3.1-0.2L417.5,84.8z M413.1,81.3l-1.9-1.6l2.5-0.3l-0.4-4.9l-6.4,4.4l1.9,3.5l2.5,0.7
			L413.1,81.3z M407.6,138.3l-3.4,4.6l-7.9,3.7l1.6,1l7.6-1.7l2.3-4.3l2.8-0.3V138L407.6,138.3z M381.3,138.3l1.4,4.5l5.7,4.8
			l0.4-1.7l-5.4-7.9L381.3,138.3z M449.4,165.9l3.8-3.5l4.9,4.8l4.5,0.9l-5.6-5.6l0.3-2.9l-9.9-5.2v10.8L449.4,165.9z M459.9,160.1
			l2,1.2l3.5-1.9v-2L459.9,160.1z M462.7,154.4l4,2.9l1.6-0.6l-4.1-2.4L462.7,154.4z M378.4,111.6l-4.4-7.2l1.1-3.1l-2.5-1.1
			l-3.4,2.4l-1.6,11l2.5,2.1l1,5l1.8,0.5l1.3-1.6l2.4,2.7l1.3,4.9l-0.3,5l2-4l-3.6-13.2l2.5-1.8L378.4,111.6z M385.7,117.8l2.9,4
			l-2.7,2.7h6.1v-1.6l-6-6.3l-1.3-4.1l-4.1-2l-2.2,1.1v1.7l2.1,1.2v3.2L385.7,117.8z M380.5,117.8v-3.2l-2.1-1.2l-2.5,1.8l3.6,13.2
			l-2,4l-0.1,2l3.5,3l0.3,1.1l2.1-0.3l-3.4-5.1l0.8-7.8l3.9,3.8v-3.2l3.9-3.9l-2.9-4L380.5,117.8z M384.6,125.7v3.2l1.9,1.9l2.2-0.3
			l3.2-2.4v-3.6h-6.1L384.6,125.7z M386,116.6l6,6.3v5.2l-3.2,2.4l0.1,3.5l6.2-4.1l-0.2-6.1l-6.5-6.8l0.3-3.7l2.3-1.3l-5-4.3
			l-5.4,2.8l4.1,2L386,116.6z M360.2,103.4l-1.4,0.6l1.9,6.1l1.2-1.2l5.6,4.7l0.4-2.5l-2.9-2.7l-0.5-3.3l-2.3,1L360.2,103.4z
			 M362.3,102.9l-3.4-0.8l0.5-2.1l-1-0.3l-2.1,3.3l-11.4-4.3l0-3.6l-2.8-1l-0.3-6.4l-2.5-1.1H337l-3.4,2.4l-0.1,2.1l2.1,1.2l1,4
			l-4.5,4.1h-2.9v3l2.1,0.8v2.6l-3.9,1l0.3,0.4l3.2,1l-1.5,1.5l1.4,1.8l2.5,0.3l0.5-2.1l1,0l8.1,23.4l5.2-3.2l0.8-9.4l11.8-11.4
			l-1.9-6.1l1.4-0.6l2,2.7l2.3-1l0.5,3.3l2.9,2.7l1.2-8.5l3.4-2.4l-5.7-2.5l-3.9,3.5L362.3,102.9z M345,95l0,3.6l11.4,4.3l2.1-3.3
			L345,95z M359.3,100l-0.5,2.1l3.4,0.8l0.8-1.7L359.3,100z M294.9,72.8l2.4,2l3.1-0.8l2.7,2.3l-0.5-5.9l4.2-1l5.5,3.8l4.6-0.9
			l3.4,4.5l3.3-0.1l3.2-2.6l7.5-0.3l4.8,2.2l-1.2-5.8l7.5-5.7l-4.3-2.5l-25.2-8.9l-10,2.2v4.5h-17.6v5.8l2.4,3l5-2l3,2l-3.6,1.8
			L294.9,72.8z M314.3,86.7l-1.7-2.7l-6.6-2.1l-3.9,1.3l-0.1,1.7l-5,0l-2.7-4.8l-6.5,0.6v1.9l8,13.5l2.4,0.2l5.5,5.7l10.1,3h2.8
			l2-3.5l-2.2-2.8l-3.2-9.3L314.3,86.7z M303.1,76.2l-2.7-2.3l-3.1,0.8l4.9,4.1l-0.2,4.3l3.9-1.3l6.6,2.1l1.7,2.7l6.3-3.2l-10.4-8.3
			h-4.4L303.1,76.2z M329.3,100.2h2.9l4.5-4.1l-1-4l-2.1-1.2l0.1-2.1l3.4-2.4h2.3l-4.8-2.2l-5.1,0.7l-1.6,7l-5.9,5.4l-6.3-0.1
			l0.5,1.4l2.2,2.8l-2,3.5h8.8l2.3,2.6l3.9-1v-2.6l-2.1-0.8V100.2z M312.4,73.2l-5.5-3.8l-4.2,1l0.5,5.9l2.7-1.1h4.4l10.4,8.3
			l3.4,0.9l-1.5-4.5l4.8-1.4l0.3-2l-7.1,0.3l-3.4-4.5L312.4,73.2z M314.3,86.7l-1.3,2.7l2.7,7.9l6.3,0.1l5.9-5.4l1.6-7l-1-2.9
			l-4.5,2.3l-3.4-0.9L314.3,86.7z M328,80.7l-4-1.3l-1.6,0.5l1.5,4.5l4.5-2.3l1,2.9l5.1-0.7l-0.8-0.3l-1.5-3.6L328,80.7z M326.8,74
			l-3.2,2.6l3.8-0.2l-0.3,2l-3.2,0.9l4,1.3l4.3-0.4l-0.7-1.6l7.5-2.8l-4.8-2.2L326.8,74z M288.3,77.7l2.9,2.6l3.1-0.3l-2.2-3.8
			l-2.4-0.6L288.3,77.7z M282.1,76.7l4.3,1.1h1.9l1.5-2.1l-5.5-2.5l-2.2,0.5V76.7z M287.7,80.7l3.4-0.3l-2.9-2.6h-1.9L287.7,80.7z
			 M255.2,48l-1.1,0.3l0.3,0.2l-0.3,1.5l-3.2-1.5l0,1.9l4.3,1.1l3.1,1.4l1.2-1l-0.4-3.1l-1.6,0.5L255.2,48z M250.9,52.5l2.4,0.8
			l0.7,1.4l0.5,1.5l3.8-3.2l-3.1-1.4l-4.3-1.1L250.9,52.5z M263.1,51.8h-3.6l-5,4.3l0.8,2.2l7.2,1.2l4.5-1l-2.7-1.1l1.6-1
			L263.1,51.8z M253.1,46.2l-0.4,1l1.4,1l1.1-0.3l2.3,1.3l1.6-0.5l-0.5-3.5l-0.9,0.8L253.1,46.2z M262.5,59.5l-7.2-1.2l0.5,1.3
			l-2.6,3.2v1.8h9.8l0.9,1.8l-1.7,2.6l1.5,0.6l0.4-1.2h5.8l-1.3,1.3l1.8,1l2.4-0.2l-2.3-2.9l6-1.3l1.5-3.4l-11-4.5L262.5,59.5z
			 M248.7,31.3l-10.1,7.4v6.6l-1.4,2.2l3.8,4.4l6.2-5.5l-2.9-3.6l6.5-7.1h1.3l-1.8-4.3L248.7,31.3z M230.9,48l5.9-1l0.4,0.5l1.4-2.2
			v-6.6l10.1-7.4h5.6v-1.8l-5.7,0.3L229,43.3L230.9,48z M254.3,31.3h-3.9l1.8,4.3h1l-3.1,7.1l3.7,1.9h5.6l3.1-3.6l-5.2-11.7
			l-2.9,0.1V31.3z M423.7,63.7h1.9l-6.8-7l-1.9-0.1l5.5,6.8l2.7,5h2L423.7,63.7z M253.2,53.3l-2.4-0.8l0,1.6l3.1,0.6L253.2,53.3z
			 M397.3,29.2l-1.9-2.5l-11.4-1.9l-3.2,2.9h-9.3l-3.9-2.9h-20.9l-1.3-4.6h-19.3l-17,7.6l3.7,4.6l-3.2,3.3l-2.9-9.5l-5.1-0.4
			l2.5,5.6L284.2,32l-18.6,7.6l-2.5-4.7l7.1,0.3l3.4-1.7l-13.5-4.3l-2.9,0.1l5.2,11.7l-3.1,3.6l-0.8,0.7l0.5,3.5l0.4,3.1h3.6
			l2.8,4.5l-1.6,1l2.7,1.1l11,4.5l-1.5,3.4l0.7,1.7l-1.8,0.5l0.3,2.8l6.4,2.2l2.2-0.5l5.5,2.5l2.4,0.6l-1.5-2.6v-5.2l-2.4-3v-5.8
			h17.6v-4.5l10-2.2l25.2,8.9l4.3,2.5l5.3-4.1l7.1,2.2l1.9-4.3l17.6,4.3h8.6l3.2-0.6l-1.7-6.1h7.5l7.7,7.6l10.5,2.7v8.5l4.6-0.8
			l2.5-3.7v-6.9l-7.1-8.1l-6.9-0.1l1.2-8.5l14.2,0.1l1.5-4.8l6,2.3l0-2.2l1.5,0.2l2.6,2.5l-2.5,1.7l-0.3,5.1l10.1,9.6v-9.2l-5.7-5.5
			l13.5-4.3l0.2-1.4l-6.8-1.8l2.6-2.1l6.1,1.3l4.1,0.1l-3.3-3.5l-21.2-4.2L397.3,29.2z M246.2,65.1l-2.5,2l3.6,1.3l3.9-0.7l3.1-3.2
			h-1.2v-0.8L246.2,65.1z M244.4,63.3l1.9,1.8l6.8-1.3v-1.1l-6.2-0.8l-0.3-0.1L244.4,63.3z M231.3,68.3l2.2,0.2l2-0.5l-0.7-2.2H233
			l-1.2,0.6L231.3,68.3z M239.8,63.3h4.6l2.2-1.4l-4.4-1.7l-3.9,1.2L239.8,63.3z M209.2,84.3l0.9,0.1l1-8.7l-3.4-0.6l-0.2,6.4
			L209.2,84.3z M262.1,69l1.7-2.6l-0.9-1.8h-2.9L262.1,69z M253.9,54.6l-3.1-0.6l-3.2,0.1l-0.7-0.7l-4.6,1.1l-0.4,0l0.4,5.6l4.4,1.7
			l0.2,0.1l6.2,0.8l2.6-3.2l-0.5-1.3l-0.8-2.2L253.9,54.6z M254.3,64.6l-3.1,3.2l2.7,4.6l6.8-0.8l2,0.5l0.8-2.5l-1.5-0.6l-2.1-4.4
			L254.3,64.6z M241.8,54.6l-5.9-0.1l-0.3-1.1h-2.1l0.4,1l-3.1,1.9l-0.3,5.4l1.9,1l-0.8,3.6l1.2-0.6h4.4l0.4-0.1l3.2-0.9l-1.1-1.5
			l-1.5-1.9l3.9-1.2L241.8,54.6z M233.6,53.5h2.1l-0.1-0.4l0.7-3.8l-1.9,0l-1.3,3L233.6,53.5z M239.1,52.2l-1.2-1.2l-1,0.4l-0.3,1.6
			l1.9,0L239.1,52.2z M240.9,64.8l-3.6,1h-2.5l0.7,2.2l3.8-0.9h4.4l1.8-1.5l0.7-0.5l-1.9-1.8h-4.6L240.9,64.8z M243.1,82.2h-3.9v1
			l1.4,1l2.4,0.4V82.2z M233,76.7v4h1.9v-3.4L233,76.7z M231.3,68.3L231,70l2.2,1h2.6l8,8l0.4,3.4l1.5-0.9l0.5-2.4l1.8-0.4l-9.8-8.4
			l2.8-0.2l-1.6-3l-5.8,1.3L231.3,68.3z M233.9,74v1.6l0.9,0.3l0.4-2H233.9z M215.4,64v1.2l3.3,1.8l0.4,5.9l4.9,3.1l1.5-2l7.2,0.1
			l0.2-3h0.2l-2.2-1l1.5-7.3l-6.6-3.4l-7.7,4.6L215.4,64z M227.8,58.3l-1.8,1.1l3.7,1.9l1.1-0.6l0-0.9L227.8,58.3z M230.7,59.8
			l0.2-3.4l-3.1,1.9L230.7,59.8z M229.6,61.3l1,0.5l0.1-1.1L229.6,61.3z M217.6,52.9l0,2.5l-1.7,0.9l1.5,2.2l-3,2.9l4-0.7l4.1-0.6
			l0.3-1.5h0.8l0.2-1.7l-2.6-0.6l-3.3-7.6l-2.5-0.1v4.1L217.6,52.9z M214.4,54.7v-1.6l-2.9-0.2l1.7,2.3L214.4,54.7z M208.5,55.1v4.4
			l1.7,0v-1.5l3.2,0.4l-0.2-3.3l-1.7-2.3L208.5,55.1z M210.1,84.4l7.1,0.5l7-8.9l-4.9-3.1l-11.4,0.1l-0.1,2.2l3.4,0.6L210.1,84.4z
			 M225.7,80.6v-1.9l-2.2,1.9H225.7z M251.5,78.4l4.5-1.4l-1-2.4l-3.7,0.7L251.5,78.4z M248.6,68.3l0.8,4.6l1.8,2.5l3.7-0.7
			l-0.9-2.2l-2.7-4.6L248.6,68.3z M241,70.1l0.4,0l2.1-1.1l0.9-1.6l-0.7-0.3h-4.4L241,70.1z M263.3,79l-3.3,0l2.7,5.5l12.6,0.7
			l12.4-2.5v-1.9l-1.4-3l-4.3-1.1l-17.2,0.6L263.3,79z M260,77.7h3.1l-1.2-2.7l-1.9,0.6L260,77.7z M246.2,74.2l1.1,0.3l2.1-1.6
			l-0.6-3.4l-4.6,0.6L246.2,74.2z M249.8,78.9l1.4,1.6l2.7,0.8l-1.7,0.7l2.2,2.8l1.4-2.2l-1.5-3.4l3.1-1.5h2.5l0-2.1L249.8,78.9z
			 M247.4,68.5l-2.9-1.1l-0.9,1.6l-2.1,1.1l0.7,0l3.4,3.9l0.7,0.2l-1.9-4.1l4.5-0.6l-0.2-1.2L247.4,68.5z M248.7,74.8l1.6-0.9
			l-0.8-1.1l-2.1,1.6l2.2,4.2l0.2,0.3l1.7-0.5l-0.2-3.1l-1-1.4L248.7,74.8z M255.9,77l5.9-1.9l1-3l-2-0.5l-6.8,0.8L255.9,77z
			 M299.7,105.1l1.4,0.9l0.9-0.9l-1.6-2.2L299.7,105.1z M272.5,86.6l-3.6,1.3l2.6,0.6L272.5,86.6z M274.9,91.2v6.5l1.4,0.2l2-0.9
			l0.6-3.6l1.6-0.7l0.1,0l-0.5-1.9l-3.2,1.9L274.9,91.2z M299.2,104.8l-3.5-5.8h-1.5l-1.1-1.4l-3,0l-9.6-5l-1.6,0.7l-0.6,3.6l-2,0.9
			l-1.3-0.2l12.5,21.7l0.2,0.8l1.3-2.2l4.4,0.6l-0.4,1.7l6.3-3.3l8.9-2.4v-4.6l-4.6-0.7l-1.4-2.6L299.2,104.8z M291.6,97.6l1.4,0
			l1.1,1.4h1.5l-1.9-3.1H292L291.6,97.6z M282.6,89l-2.6,1.6l0.5,2l9.5,5l1.6,0L292,96l3.5,0l-7.8-13.3l-3.6,0.7L282.6,89z
			 M305.4,107.4l-3.4-0.7l1.4,2.6l2.6,0.4l3.7-3.8l-1.7-1.5L305.4,107.4z M306.1,109.6l2,0.3v4.6l-4.5,1.2v2.7l2.5,1.7l8.2-10.2
			l-4.5-4L306.1,109.6z M276.3,88.5l-1.5,2.7l1.9,1.4l5.9-3.5l1.4-5.7l-8.8,1.8l-0.6,2.8L276.3,88.5z M299.2,116.9l-6.3,3.3l0.4-1.7
			l-4.4-0.6l-1.3,2.2l2.2,7.2l16.3-7.3l-2.5-1.7v-2.7L299.2,116.9z M274.9,91.2l1.5-2.7l-1.6-0.6l-0.6,2.7L274.9,91.2z M274.8,97.7
			L274.8,97.7l0-6.5l-0.7-0.5l-1.1,4.1L274.8,97.7z M288.2,189.9l1.7,4l4.1,0.2l6.9-22.2h-2.5l-8,8.4l-0.8,5.8L288.2,189.9z
			 M243.5,135.3l-1.2-3.5h2.4l-2.9-6.2v3.4l-4.2,8.7l-3.6,0.2l-0.5,3.6h1.6l-0.1,3.6H245l0.4-1.3h0l-3-4.2L243.5,135.3z
			 M237.7,147.7h-2.8l-0.1,4.3l3.6,4.9v-4.1h4.7l-2.4-7.7h-3v0h-2.8l-0.1,2.6H237.7z M228.2,138.6l0.6,2.9h4.5l0.5-3.6l3.6-0.2
			l4.2-8.7v-3.4h-15.6l-2.5,12.3L228.2,138.6z M205.1,136.2l1.1,1.3v5.4l8.5-2.5v-7.9l-8.3-1.6v4.1L205.1,136.2z M206.3,142.9v-5.4
			l-3.1-3.5l-2.7,2.6L206.3,142.9z M257.6,167.9l-2.9-1.4v-5.4h-3.3l-0.7,2.4l-3.3,0.1l-0.9-3l-5.3,0v11.7l-3,4.9l0.3,3.2H257
			l-3-3.8v-4.2h3.7L257.6,167.9z M220.6,138.8l-1.4-8.4h-4.4v10.1L220.6,138.8z M240.6,145.1l2.4,7.7h-4.7v4.1l1.8,2.4l4.4-2
			l4.7-7.8l0.7-5.8h-4.6l-0.4,1.3L240.6,145.1z M284,123.8l2.8,4.3l1-0.9l-7-12l-3.6,8.5H284z M200.5,136.6l2.7-2.6l-2.8-3.1
			l-2.7,2.7L200.5,136.6z M287.5,131l1.8-1.3l-1.4-2.5l-2.1,1.7L287.5,131z M274.6,170v2.6l2.3,1.5v3.2l-2.1,1.9v-3.8l-2.1-1.8
			l-0.1,0l-4.1,2.8l4.1,2.7v3.7l-2.5,5.9v6.6l1.8,0l0.1-0.9l3.8-2.7l-0.3-8l8.9-7.3l-0.9-8.4L274.6,170z M289.3,129.7l-1.8,1.3
			l1.8,2l7.1,2.5l-11.1,9.2v8l17.4-20.2L302,129l-12.1,1.8L289.3,129.7z M245.1,199.2h6.7v-17h8.8l-1.1-1.6h-21L245.1,199.2z
			 M278,140.9l-3,0.4l0.9,3.7l-0.4,3.2l-1.4,2.4l8.3,5.5l2.9-3.4v-8l3.2-2.7h-9.4L278,140.9z M274.1,150.6l-0.5,0.9h-3l0.8-1.3H270
			l-3.1,7.6l5.6,7.8h2.1v4.4l8.9-1.9l-1.1-12.1L274.1,150.6z M206,103.1H201v5.7l-1.8,2.8h-6.1l-0.2,6.4l7.5,5.4v-1.9h9l-0.9-15.4
			h4.8l-7.3-5.4L206,103.1z M268.8,153.3l1.2-3.1h-2.6l-0.8,3.6L268.8,153.3z M266.9,157.8l1.8-4.5l-2.2,0.5l-0.6,2.6L266.9,157.8z
			 M194.8,130.5l2.9,3.1l2.7-2.7l2.8,3.1l1.9,2.2l1.4-1.2v-4.1l-0.6-2.9h-8.6L194.8,130.5z M209.4,121.4h-9v1.9l2,4.6h3.4l0.6,3
			l4.2,0.8v-4.2l16-6.5v-5.3l-13.3-9.8h-4.8L209.4,121.4z M264.9,169.1l3.2,1.3l-1.1,2.2l-9.5-4.7l0.1,4.7H254v4.2l3,3.8h5.7
			l9.8-6.8v-8.1l-1.2-1.7l-5.4,0.8L264.9,169.1z M251.7,193.1l2.7,3.1l10.9-7.3l-4.8-6.7h-8.8V193.1z M210.6,131.7l4.2,0.8v-2.2h4.4
			l5.1-1.9l-4.9-4.4l-8.8,3.6V131.7z M272.5,165.6v8.1l0.1,0l2.1,1.8v3.8l2.1-1.9v-3.2l-2.3-1.5v-7H272.5z M286.8,128.1l-2.8-4.3
			h-6.8l-4.8,11.3l6.6,6.9h9.4l7.9-6.5l-7.1-2.5l-3.5-4L286.8,128.1z M267.3,150.2h4l1.1-2h3l0.4-3.2l-0.9-3.7l-5.7,0.8L267.3,150.2
			z M226.6,115.8v5.3l-7.2,2.9l4.9,4.4l1.3-0.5l0.5-2.4h15.6l3.5-7.2l-1.4-9.5h-7L226.6,115.8z M193.1,111.6h6.1l1.8-2.8v-5.7h4.9
			v-3.4h-5.4l-7.3,9.6L193.1,111.6z M192.7,124.1l4.9,1.4h-5l-0.1,2.4h9.9l-2-4.6l-7.5-5.4L192.7,124.1z M197.6,125.6l-4.9-1.4
			l-0.1,1.4H197.6z M245.2,118.3l-3.5,7.2l2.9,6.2h-2.4l1.2,3.5l11.7-5.5v-6l2.6-2.6l0.3-5.8l-10.1-6.5h-4L245.2,118.3z M245.3,94.7
			l-2.1-2.6l-4.6-1.1l-4.2,4.6l2.8,13.3h10.8l10.1,6.5l1-22.4l-5.9-0.8l-2.4,3.7L245.3,94.7z M205.1,99.7h0.9V99l12.2-6.7v-4.8
			l-9,0.9l-8.7,11.3L205.1,99.7z M218.2,87.5v4.8L206,99v1.6l20.6,15.2l10.3-7h0.2l-5-24.2l-5.9-0.2L218.2,87.5z M232.1,84.6
			l2.3,10.9l4.2-4.6l-1.7-0.4l0.2-5.8L232.1,84.6z M259.4,180.6l5.9,8.3h4.6l2.5-5.9v-3.7l-4.1-2.7l-5.8,4H259.4z M262.1,203.2h2.4
			l1.4-1.5v-1.9H264l-1.8,1.2V203.2z M269.9,194.9h-1.8v1.6l1.8,1.1V194.9z M274.8,97.8L274.8,97.8l-1.8-3l-14-1.9l-0.8,17h15.4
			l3.1-1.8l-6.4-11l3.5,2.8L274.8,97.8z M276.7,108.1l-3.1,1.8h-15.4l-0.5,11.2l-2.6,2.6v6l9.2,10.6l4.9,1.8l8.8-1.2l-5.5-5.8
			l4.8-11.3l3.6-8.5L276.7,108.1z M265.9,156.4l3.4-14.2l-4.9-1.8l-13.9,0.4l-1.1,8.8l-4.7,7.8l-4.4,2l1,1.3l5.3,0l0.9,3l3.3-0.1
			l0.7-2.4h3.3v5.4l12.4,6.1l1.1-2.2l-3.2-1.3l1-4.4l5.4-0.8L265.9,156.4z M242.4,139.5l3,4.2h4.7l0.4-3.1l13.9-0.4l-9.2-10.6
			l-11.7,5.5L242.4,139.5z M225.6,128l-4.4,1.6l1.4,8.6l0.9-0.2L225.6,128z M221.2,129.6l-2,0.8l1.4,8.4l2.1-0.6L221.2,129.6z
			 M194.8,130.5l2.4-2.6h-4.7l0,0.1L194.8,130.5z M58.5,30.2l-3.7-1.5l-19.1,0.1L28,31.9v3.4l-8.7-0.1l-1.6,2.3l7.3-0.3l-9.4,3.5
			L11,47l3.9-0.1l-7.5,4.9l2.7,0.2l14.4-6.9l16.6-0.6l5,5l1.9-2.1l-1.7-1.7h-1.9l-1.8-2.1L58.5,30.2L58.5,30.2z M46,62.2L43.4,60
			l-1.1,1l1.8,2.4H46V62.2z M146.8,65.5l-2-3.1l-1.8-0.4v-2.3l-5.7,5.8H146.8z M143.8,29.2l-11.5-4.7l-1.7,0l-4,3.3l1.3-3.3l-1.9,0
			l-4.7,5l11.4-0.6l6.9,6.2l-4.7-0.1l-2.4,1.9h-5.3v1.5h5.4l4.6,3.8l1.2-0.5l-1.1-2.4l3.1,1.5l1-0.4v-4.7l3.6,1.3l2.1-1.4l-1.2-2.2
			l-2.1-0.8L143.8,29.2z M104.9,71.3h3.3l2.3-1.6h7.5l3.2-2.8h2.9l-1.1,3.3l5.1-0.9l-3.4,1.6l0.3,1.4l9.2-3.2l-4.5-0.2l-2.1-1.9
			l2.1-3.2l-1-1l-6.5,2.9v-1.7l6.2-3l9.9-0.4l7.5-4l0-1.8l-5.4-0.9L140,45l-7.1,2.8l0.1-4.2l-3.4-2.9h-4.7l-12.6,18.4l-3.1,0l0.1-6
			l-10.9-5.9l10.9-8.1l6.2-1.1l-1.3-1.9l9.5-1l3.9-4l-3.6-0.4l-5,3.3l0.6-2.8l-2.3-0.2l-0.6-3.4l-4,1.8l1.1,2.2l-5.4,2.6l-9.4-1.8
			l-5,2.3l-12.1-4.8l-23.1,0.5L42.7,43.8l1.8,2.1h1.9l1.7,1.7l-1.9,2.1l-1.9,8.8l3.5,3.1v1.7h38.8l4.6,2.1l7.7-1.6l1,3.4l1.6,1.2
			l2.6-0.2L104.9,71.3z M118.9,36.8l-3,2.4l5.8,0.6l0.6-1.5L118.9,36.8z M107.5,30.7l1.1,1.4l2.8-1.4l-0.8-1.3L107.5,30.7z
			 M109.6,26l1.8,1.8l3.8-1.3l1-2.6L109.6,26z M116.8,24.9l0.5,1.7l5.1-1.4l-1-1.4L116.8,24.9z M129.9,21.4l-2.8-1.2l-2.7,2.3
			l11.1,0.9l2.9-2H129.9z M156.9,15.1l5.8-3.3l-23,1.7v1.2l7.8-0.2l-1.1,1.4l-8.1,0.2l1.1,1.9l-3.5-0.6l1.4,1.8h-6l0.9,0.9h6.5
			l1.1,0.9l9.5-4.4L156.9,15.1z M128.8,16.5l4.3,0.8l2.5-1.6l-1.8-1.3L128.8,16.5z M83.5,27.7l10.1-3.4l-2.3-1.1l-9.5,2.4L83.5,27.7
			z M94.8,24.9l-5.4,1.8l3.2,1.3l-5,1.3l6.2,2.4l4.3-1.9l4.8,1.1l3.6-0.8l-3.5-1.6l2.7-3.5h-2.7l-1.6,2.1l-0.7-2.1l-2.8,1.1
			L94.8,24.9z M87,109.8h4.9l4,2.7l-1.5,1.7h6.9l-8.3-6h-4.4L87,109.8z M93.9,117.2l1,0.9h3V117l-1-1.1h-3V117.2z M112.2,116.4
			l-0.6,1h1.7l0.6-1H112.2z M75.5,120.7h-2.8l-1.3,2.4l4,2l2.7-4.9l-0.5-2.6H75L75.5,120.7z M78.6,124.6l-0.5,1.7l0.7,0.3l6.7-5.6
			l-8,0.1l-1.3,2.4L78.6,124.6z M78.1,126.3l0.5-1.7l-2.5-1.1l-0.9,1.5L78.1,126.3z M80.6,115.2l-3.1,2.3l0.5,2.6L80.6,115.2z
			 M81.4,130.1l4.3,0.5l-0.2-9.5l-6.7,5.6L81.4,130.1z M88.4,156.4l3.6,1.7l6.3-7.8l-6.5-3.7l-3.1,3.9L88.4,156.4z M101.4,128.9
			l-1.7,0l-3.6,4.9l-1.8,0.1l0.5,1.8l-1,1.4l0.7,2.5l-0.7,4.6l-2.1,2.6l14.8,8.4v-9.5l3.4-0.2v-7.5l-5.6-0.6l-2.4-2.7L101.4,128.9z
			 M124.9,243.7l2.2,2l6.8,0.2l-7.3-3.8L124.9,243.7z M135.3,194.9l-3,1.8h-4v-3.5l-8.1-5.5l-0.5,0.8H113l-1.8,16.9l3.8,16.8
			l3.5,6.2l0.2,4.6l5.1,7.9l1.9,0.2l-1-20.1l10.9-4.7l-4.9-6.9v-7.6l4.8-4.9L135.3,194.9z M136.5,211.5l2.4-4.1l-8.2-5.6v7.6
			L136.5,211.5z M113.5,131.6l-3.7-2.6l-8.5-0.1l0.5,5.7l2.4,2.7l5.6,0.6v7.5l0.9-0.1l1.1,2.6l3.7-1.2l-0.3-4l4.9-1.8l1.4-7.2
			l-1.6-1.6L113.5,131.6z M81.4,130.1l2.9,3.9l1,0.4l1.5-1.9l-1-0.6l0-1.4L81.4,130.1z M126.8,138.6l-5.1-4.9l-1.4,7.2l2.1-0.8
			l-0.3,6.1l4.9-0.6l-1.7-4.3L126.8,138.6z M114.2,168.1l-5,1.4V181l3.8,7.6h6.8l2.6-4.8l5.1,0l-0.1-3.8l-8.7-7.1L114.2,168.1z
			 M131.4,145.2l3.3-0.4l1-2.8l-1.3-2.8l-2.7-0.2L131.4,145.2z M127.5,183.7l-5.1,0l-2.2,4l8.1,5.5v3.5h4l3-1.8l-0.2-2.8l-7.4-4
			L127.5,183.7z M127,145.7l4.4-0.5l0.2-6.2l-4.8-0.4l-1.5,2.8L127,145.7z M147.6,151.9l-3.7-1.6l-3.7,2.2l1.2-3.3l-2.5-1.1
			l-3.5,2.7l2.6-3.8l-2.2-4.9l-1,2.8l-12.6,1.4l0.3-6.1l-2.1,0.8l-4.9,1.8l0.3,4l-3.7,1.2l-1.1-2.6l-4.3,0.3v11.2l-4.4,0.5l-1.9,6.3
			l7.4,6.3l6.6-1.9l4.5,4.6l8.7,7.1l0.3,8.3l7.4,4l0.3,4.6l-4.8,4.9l8.2,5.6l4.8-8.4l1.1-7.2l11.7-5.2l2.2-16.1l5-6.6v-4l-8.2-5.4
			l-8.1-0.5L147.6,151.9z M89.9,132.3l-1.4,1.1l-1.8-1l-1.5,1.9l4.3,1.5l1-1.6l2.5,0.2l0.7,2.4l1-1.4l-0.4-1.6l-0.5-2L89.9,132.3z
			 M102.1,157.3l4.4-0.5v-1.7l-8.3-4.7l-6.3,7.8l-3.6-1.7l-0.1,1.8L99,176.6l9.3,6.2l0.8-1.9v-11.4l-1.6,0.5l-7.4-6.3L102.1,157.3z
			 M115,222.2l-3.8-16.8l1.8-16.9l-3.8-7.6l-0.8,1.9l1.6,38.2l4.1,3.3l0.2,6.9l7.2,9.3l2.3,0.2l-5.1-7.9l-0.2-4.6L115,222.2z
			 M110,115l-4.9-0.5v2.7l1.6-1.2h2.6L110,115z M105.1,116.5v-2h-3l1,1.4h-1.8v0.6H105.1z"/>
		<path class="st1" d="M481.4,220l-1,3.2l7.3-5.2l-2.1-2.8V212l-1.2,0.5v4.5L481.4,220z M462.2,230.5l15.2-7.7v2l-11.7,7.7
			L462.2,230.5z M399.9,191l12.8-6l9.5-10.5l5.2,2.3l2.3-4.8l8.7-0.2l-2.2,4l7.2,6.2l4.8-4.8v-6.7l2.2,0.7l2.5,12l7.8,11l-0.8,8.3
			l-14.2,14.7l-12.3-0.7l-1.5-8.3l-4.2,1.8l-4-3.5l-24.3,5.3l-1.5-1.8l2-4.8V191z"/>
	</g>
</g>
</svg>
